<?xml version="1.0" encoding="UTF-8"?>
<svg width="1273px" height="1273px" viewBox="0 0 1273 1273" version="1.1" xmlns="http://www.w3.org/2000/svg" xmlns:xlink="http://www.w3.org/1999/xlink">
    <title>Artboard</title>
    <g id="Artboard" stroke="none" stroke-width="1" fill="none" fill-rule="evenodd">
        <path d="M186.740232,775.981363 C243.737258,742.170331 272.235771,693.425053 272.235771,629.745528 C272.235771,550.992438 302.998415,519.746838 333.282841,519.746838 C363.567268,519.746838 393.920475,550.992438 393.920475,629.745528 C393.920475,704.651858 393.26561,793.093453 453.4669,793.093453 C513.668191,793.093453 513.668191,706.616161 513.668191,629.745528 C513.668191,552.874895 522.267135,468.881769 572.604161,468.881769 C622.941187,468.881769 630.285999,552.874895 630.285999,629.745528 C630.285999,881.328058 630.285999,866.241838 630.285999,1142.84047 C630.285999,1084.69434 630.285999,551.914844 630.285999,667.610123 C630.285999,723.523799 645.441958,798.369077 688.861127,798.369077 C732.280295,798.369077 751.793366,787.248126 751.793366,629.745528 C751.793366,547.73775 780.616962,525.882719 808.27278,519.746838 C835.928598,513.610956 872.56902,554.530428 872.56902,629.745528 C872.56902,704.960628 891.805225,741.13458 935.56603,741.13458 C979.326835,741.13458 1073.82699,636.505184 950.068083,426.987697 C826.309174,217.47021 920.771566,154.454221 924.857552,149.654604 C928.943538,144.854988 983.853438,109.833071 1032.31878,149.654604 C1080.78412,189.476138 1085.37162,246.536536 1085.37162,320.088697" id="Path-Copy" stroke="#FF5196" stroke-width="81"></path>
    </g>
</svg>